<svg xmlns="http://www.w3.org/2000/svg" viewBox="0 0 90 90"><defs><style>.cls-1{fill:#404041;}.cls-2{fill:#e6e6e6;fill-rule:evenodd;}.cls-3{fill:#fff;}.cls-4{fill:#444;}</style></defs><title>panda</title><g id="panda"><circle class="cls-1" cx="17.86" cy="20.56" r="12.05" transform="translate(-9.3 18.65) rotate(-45)"/><circle class="cls-1" cx="72.14" cy="20.56" r="12.05" transform="translate(6.59 57.03) rotate(-45)"/><path class="cls-2" d="M45,81.5a34,34,0,1,0-34-34A34,34,0,0,0,45,81.5Z"/><ellipse class="cls-1" cx="62.02" cy="40.08" rx="8.22" ry="11.75" transform="translate(-11.73 36.38) rotate(-30)"/><circle class="cls-3" cx="62.02" cy="40.08" r="5.02"/><circle class="cls-1" cx="62.02" cy="40.08" r="2.45"/><ellipse class="cls-1" cx="27.98" cy="40.08" rx="11.75" ry="8.22" transform="translate(-20.72 44.27) rotate(-60)"/><circle class="cls-3" cx="27.99" cy="40.08" r="5.02"/><circle class="cls-1" cx="27.99" cy="40.08" r="2.45"/><path class="cls-1" d="M45,58.44a3.34,3.34,0,0,1-1.48-.34c0,.78,0,1.68,0,2.78a5.77,5.77,0,0,1-1.44.87h0a5.76,5.76,0,0,1-2.19.43,1.45,1.45,0,0,0,0,2.9,8.62,8.62,0,0,0,3.3-.66h0a8.72,8.72,0,0,0,1.78-1,8.68,8.68,0,0,0,1.78,1h0a8.62,8.62,0,0,0,3.3.66,1.45,1.45,0,0,0,0-2.9,5.77,5.77,0,0,1-2.19-.43h0a5.8,5.8,0,0,1-1.44-.86c0-1.09,0-2,0-2.78A3.34,3.34,0,0,1,45,58.44Z"/><path class="cls-4" d="M52,48.29a3.32,3.32,0,0,0-3-1.84H41a3.33,3.33,0,0,0-2.67,5.33l4,5.33a3.34,3.34,0,0,0,5.34,0l4-5.33A3.3,3.3,0,0,0,52,48.29Z"/></g></svg>